<?xml version="1.0" encoding="UTF-8"?>
<svg width="42px" height="42px" viewBox="0 0 42 42" version="1.1" xmlns="http://www.w3.org/2000/svg" xmlns:xlink="http://www.w3.org/1999/xlink">
    <!-- Generator: sketchtool 51.3 (57544) - http://www.bohemiancoding.com/sketch -->
    <g stroke="none" stroke-width="1" fill="none" fill-rule="evenodd">
        <g transform="translate(-542.000000, -698.000000)" stroke="#7733FF">
            <g transform="translate(468.000000, 699.000000)">
                <g transform="translate(75.000000, 0.000000)">
                    <path d="M17.184787,32.4021953 C17.184787,32.0435166 17.171036,31.0944546 17.1631783,29.8339817 C12.7127635,30.7468978 11.7737662,27.8107372 11.7737662,27.8107372 C11.0459451,26.0664651 9.99693983,25.6021291 9.99693983,25.6021291 C8.5442443,24.6651157 10.1069479,24.6845789 10.1069479,24.6845789 C11.7128689,24.791163 12.5575735,26.2397801 12.5575735,26.2397801 C13.9847315,28.5475578 16.3027582,27.8811754 17.2142534,27.4946921 C17.3596212,26.5187524 17.7731336,25.8532968 18.2298634,25.4760818 C14.6771929,25.0951594 10.9418304,23.7994674 10.9418304,18.0142672 C10.9418304,16.3663841 11.5655367,15.0187903 12.5890044,13.9631441 C12.4239923,13.581295 11.8749343,12.0464838 12.7461588,9.96763021 C12.7461588,9.96763021 14.0888463,9.56168377 17.1454984,11.5154169 C18.4213953,11.1808354 19.7906026,11.0130813 21.1509699,11.0075204 C22.5103551,11.0130813 23.8785801,11.1808354 25.1564414,11.5154169 C28.2111291,9.56168377 29.5518522,9.96763021 29.5518522,9.96763021 C30.4250411,12.0464838 29.8759831,13.581295 29.7119532,13.9631441 C30.7373853,15.0187903 31.3561806,16.3663841 31.3561806,18.0142672 C31.3561806,23.8142965 27.6149248,25.0905253 24.0514499,25.4640331 C24.6250633,25.9302228 25.1367972,26.8514802 25.1367972,28.2602441 C25.1367972,30.2788545 25.1171529,31.9072743 25.1171529,32.4021953 C25.1171529,32.8053613 17.184787,32.801654 17.184787,32.4021953 Z" fill="#7733FF" stroke-linecap="round" stroke-linejoin="round"></path>
                    <circle cx="20" cy="20" r="20"></circle>
                </g>
            </g>
        </g>
    </g>
</svg> 
