<?xml version="1.0" encoding="UTF-8"?>
<svg width="42px" height="42px" viewBox="0 0 42 42" version="1.1" xmlns="http://www.w3.org/2000/svg" xmlns:xlink="http://www.w3.org/1999/xlink">
    <!-- Generator: sketchtool 51.3 (57544) - http://www.bohemiancoding.com/sketch -->
    <g stroke="none" stroke-width="1" fill="none" fill-rule="evenodd">
        <g transform="translate(-542.000000, -698.000000)">
            <g transform="translate(468.000000, 699.000000)">
                <g transform="translate(75.000000, 0.000000)">
                    <circle stroke="#7733FF" fill="#7733FF" cx="20" cy="20" r="20"></circle>
                    <path d="M16.8141283,32.695981 C16.8141283,32.3336878 16.8003633,31.3750619 16.7924975,30.1018868 C12.337536,31.0240026 11.3975795,28.0582537 11.3975795,28.0582537 C10.6690148,26.2964041 9.6189378,25.8273888 9.6189378,25.8273888 C8.16475813,24.880933 9.72905823,24.9005923 9.72905823,24.9005923 C11.3366199,25.0082505 12.1821876,26.4714656 12.1821876,26.4714656 C13.6108035,28.8024994 15.9311984,28.1294017 16.8436249,27.7390237 C16.9891412,26.7532492 17.403076,26.0810877 17.8602725,25.7000713 C14.3039724,25.3153103 10.5647937,24.0065613 10.5647937,18.1630622 C10.5647937,16.4985731 11.1891372,15.1373991 12.2136505,14.071115 C12.0484699,13.6854179 11.4988509,12.13514 12.3709654,10.0353373 C12.3709654,10.0353373 13.7150247,9.62530008 16.7747996,11.5987214 C18.052,11.2607683 19.4226061,11.0913237 20.7843633,11.0857068 C22.1451372,11.0913237 23.5147601,11.2607683 24.7939269,11.5987214 C27.8517354,9.62530008 29.1938282,10.0353373 29.1938282,10.0353373 C30.0679092,12.13514 29.5182902,13.6854179 29.3540928,14.071115 C30.3805726,15.1373991 31,16.4985731 31,18.1630622 C31,24.0215398 27.254922,25.3106295 23.6878065,25.6879013 C24.2620059,26.1587888 24.7742626,27.08933 24.7742626,28.5122903 C24.7742626,30.5512428 24.7545982,32.1960726 24.7545982,32.695981 C24.7545982,33.1032098 16.8141283,33.0994652 16.8141283,32.695981 Z" stroke="#151B38" fill="#151B38" stroke-linecap="round" stroke-linejoin="round"></path>
                </g>
            </g>
        </g>
    </g>
</svg> 
