<?xml version="1.0" encoding="UTF-8"?>
<svg width="42px" height="42px" viewBox="0 0 42 42" version="1.1" xmlns="http://www.w3.org/2000/svg" xmlns:xlink="http://www.w3.org/1999/xlink">
    <!-- Generator: sketchtool 51.3 (57544) - http://www.bohemiancoding.com/sketch -->
    <g stroke="none" stroke-width="1" fill="none" fill-rule="evenodd">
        <g transform="translate(-617.000000, -698.000000)">
            <g transform="translate(468.000000, 699.000000)">
                <g transform="translate(150.000000, 0.000000)">
                    <circle stroke="#7733FF" fill="#7733FF" cx="20" cy="20" r="20"></circle>
                    <path d="M11.7965028,11 C10.4182425,11 9.30232558,12.0258327 9.30232558,13.2928307 C9.30232558,14.5598287 10.4182425,15.5856614 11.7965028,15.5856614 C13.1747631,15.5856614 14.2902013,14.5598287 14.2902013,13.2928307 C14.2902013,12.0258327 13.1747631,11 11.7965028,11 Z M30.5799071,21.5826679 C30.2514991,19.0966409 29.0182937,17.5523908 25.3689438,17.5523908 C23.229026,17.5523908 21.7851798,18.2763268 21.1815028,19.3263641 L21.1159169,19.3263641 L21.1159169,17.5523908 L17.1381591,17.5523908 L17.1381591,20.0740645 L17.1381591,30.6686147 L21.2997488,30.6686147 L21.2997488,24.165073 C21.2997488,22.450951 21.6669338,20.7984406 23.9519065,20.7984406 C26.24789,20.7984406 26.4183174,22.7528477 26.4183174,24.2852156 L26.4183174,30.6686147 L30.6976744,30.6686147 L30.6976744,23.4649015 C30.6976744,22.7889345 30.6579399,22.1618167 30.5799071,21.5826679 Z M9.30232558,21.0396059 L9.30232558,30.6686147 L14.2902013,30.6686147 L14.2902013,17.5523908 L9.30232558,17.5523908 L9.30232558,21.0396059 Z" stroke="#151B38" fill="#151B38" stroke-linecap="round" stroke-linejoin="round"></path>
                </g>
            </g>
        </g>
    </g>
</svg> 
