<?xml version="1.0" encoding="UTF-8"?>
<svg width="42px" height="42px" viewBox="0 0 42 42" version="1.1" xmlns="http://www.w3.org/2000/svg" xmlns:xlink="http://www.w3.org/1999/xlink">
    <!-- Generator: sketchtool 51.3 (57544) - http://www.bohemiancoding.com/sketch -->
    <g stroke="none" stroke-width="1" fill="none" fill-rule="evenodd">
        <g transform="translate(-692.000000, -698.000000)">
            <g transform="translate(468.000000, 699.000000)">
                <g transform="translate(225.000000, 0.000000)">
                    <circle stroke="#7733FF" fill="#7733FF" cx="20" cy="20" r="20"></circle>
                    <g transform="translate(10.697674, 8.372093)" fill="#151B38" stroke="#151B38" stroke-linecap="round" stroke-linejoin="round">
                        <path d="M16.5765975,0.00883973506 C16.0903121,0.0737308964 15.7563626,0.514095743 15.8222376,0.992947761 L16.8551938,7.93137924 C16.9247285,8.40530848 17.3753316,8.73737222 17.8593297,8.66934838 C18.3492748,8.59908692 18.6832243,8.13589828 18.6136896,7.65704626 L17.6090963,0.746808873 C17.5395616,0.272879633 17.0642553,-0.059184103 16.5765975,0.00883973506 Z M10.0361182,1.87438606 C9.92175196,1.89541975 9.80555583,1.9459901 9.70033885,2.01088126 C9.2895352,2.27447363 9.18020104,2.80613363 9.45010545,3.21338161 L13.3582298,9.08536042 C13.6281342,9.48947572 14.174805,9.59419663 14.5878959,9.33194683 C15.0023593,9.06790693 15.1075763,8.53669446 14.8395018,8.12899896 L10.9295476,2.25702015 C10.7278055,1.95673071 10.3773872,1.8130751 10.0361182,1.87438606 Z M6.32566684,6.52313248 C6.10059401,6.56296222 5.8791809,6.70661783 5.73965405,6.90576656 C5.46105781,7.30093136 5.5594128,7.83035373 5.96289702,8.10692434 L11.85459,12.0943743 C12.2562444,12.3687073 12.8056599,12.2689092 13.0842562,11.8773246 C13.3665121,11.4808172 13.2644974,10.9214106 12.8610132,10.6466301 L6.99768307,6.68737424 C6.7941111,6.55087904 6.55302699,6.4828552 6.32566684,6.52313248 Z M4.50940994,12.0997685 C4.16448126,12.1364655 3.86072444,12.3530677 3.75733732,12.7012424 C3.61598061,13.1608508 3.90006643,13.6571563 4.37034055,13.7936515 L11.2108161,15.760525 C11.6824627,15.8965727 12.1879616,15.6468536 12.3274884,15.1867976 C12.4670153,14.7253991 12.1847593,14.2308837 11.7144852,14.0943885 L4.87217976,12.127515 C4.75415377,12.0926081 4.62560608,12.0858952 4.50940994,12.0997685 Z M0,14.5151983 L0,20.6337635 C0,22.0810602 1.20084588,23.255814 2.68074547,23.255814 L13.4023549,23.255814 C14.8822545,23.255814 16.0831004,22.0810602 16.0831004,20.6337635 L16.0831004,14.5151983 L14.2957843,14.5151983 L14.2957843,20.6337635 C14.2957843,21.1144056 13.8936725,21.5077803 13.4023549,21.5077803 L2.68074547,21.5077803 C2.18897049,21.5077803 1.78731613,21.1144056 1.78731613,20.6337635 L1.78731613,14.5151983 L0,14.5151983 Z M4.46760413,18.0117131 C3.97628662,18.0117131 3.5741748,18.4046402 3.5741748,18.8857299 C3.5741748,19.366372 3.97628662,19.7597467 4.46760413,19.7597467 L11.6154963,19.7597467 C12.1068138,19.7597467 12.5089256,19.366372 12.5089256,18.8857299 C12.5089256,18.4046402 12.1068138,18.0117131 11.6154963,18.0117131 L4.46760413,18.0117131 Z"></path>
                    </g>
                </g>
            </g>
        </g>
    </g>
</svg> 
