<?xml version="1.0" encoding="UTF-8"?>
<svg width="42px" height="42px" viewBox="0 0 42 42" version="1.1" xmlns="http://www.w3.org/2000/svg" xmlns:xlink="http://www.w3.org/1999/xlink">
    <!-- Generator: sketchtool 51.3 (57544) - http://www.bohemiancoding.com/sketch -->
    <g stroke="none" stroke-width="1" fill="none" fill-rule="evenodd">
        <g transform="translate(-467.000000, -698.000000)">
            <g transform="translate(468.000000, 699.000000)">
                <g>
                    <circle stroke="#7733FF" fill="#7733FF" cx="20" cy="20" r="20"></circle>
                    <path d="M34.4456991,14.4278307 C33.4978305,14.815181 32.4664174,15.0818493 31.377761,15.2151834 C32.4942656,14.5884156 33.3420871,13.6273392 33.7391811,12.4531228 C32.7067367,13.0268489 31.5474284,13.4404767 30.3313924,13.6672421 C29.3685684,12.6935135 27.9699723,12.0930233 26.4146014,12.0930233 C23.4735271,12.0930233 21.0693033,14.3212607 21.0693033,17.0560706 C21.0693033,17.4565596 21.1404708,17.8302845 21.2250467,18.1908707 C16.7714051,17.9903828 12.8257345,16.0156749 10.1956313,13.0000847 C9.74335667,13.7475346 9.46074949,14.5884156 9.46074949,15.4954771 C9.46074949,17.2297942 10.4220264,18.7509714 11.835578,19.6317554 C10.9593926,19.61813 10.1389036,19.3913646 9.41846156,19.0176397 C9.41846156,19.0444039 9.41846156,19.0580292 9.41846156,19.0843068 C9.41846156,19.7247 9.54584107,20.3120515 9.7856446,20.8721522 C10.4364662,22.4337189 11.9211853,23.6074487 13.7173911,23.9412707 C13.2496453,24.0614661 12.7973707,24.1276465 12.3028081,24.1276465 C11.9634732,24.1276465 11.6241384,24.0877436 11.2982118,24.0210765 C11.9918371,25.9957845 13.956679,27.4366692 16.2907667,27.4901975 C14.4517572,28.8245122 12.1615045,29.6118649 9.6587808,29.6118649 C9.21991455,29.6118649 8.81044357,29.5846141 8.37209302,29.5447112 C10.7474373,30.9461796 13.561132,31.7729486 16.5733738,31.7729486 C24.9298823,31.7729486 30.0910732,26.3159811 31.4334573,20.6453869 C31.6748079,19.6317554 31.787232,18.630776 31.787232,17.6434221 C31.787232,17.4297955 31.787232,17.2035167 31.787232,17.0030289 C32.8196764,16.2959686 33.7391811,15.4151846 34.4456991,14.4278307 Z" stroke="#151B38" fill="#151B38" stroke-linecap="round" stroke-linejoin="round"></path>
                </g>
            </g>
        </g>
    </g>
</svg> 
